<?xml version="1.0" encoding="UTF-8" standalone="no"?>
<svg
   xmlns:dc="http://purl.org/dc/elements/1.1/"
   xmlns:cc="http://creativecommons.org/ns#"
   xmlns:rdf="http://www.w3.org/1999/02/22-rdf-syntax-ns#"
   xmlns:svg="http://www.w3.org/2000/svg"
   xmlns="http://www.w3.org/2000/svg"
   xmlns:sodipodi="http://sodipodi.sourceforge.net/DTD/sodipodi-0.dtd"
   xmlns:inkscape="http://www.inkscape.org/namespaces/inkscape"
   version="1.0"
   width="1280.000000pt"
   height="1280.000000pt"
   viewBox="0 0 1280.000000 1280.000000"
   preserveAspectRatio="xMidYMid meet"
   id="svg576"
   sodipodi:docname="extension_icon.svg"
   inkscape:version="0.92.4 (5da689c313, 2019-01-14)">
  <metadata
     id="metadata582">
    <rdf:RDF>
      <cc:Work
         rdf:about="">
        <dc:format>image/svg+xml</dc:format>
        <dc:type
           rdf:resource="http://purl.org/dc/dcmitype/StillImage" />
        <dc:title></dc:title>
      </cc:Work>
    </rdf:RDF>
  </metadata>
  <defs
     id="defs580">
    <filter
       inkscape:label="In and Out"
       inkscape:menu="Shadows and Glows"
       inkscape:menu-tooltip="Inner colorized shadow, outer black shadow"
       style="color-interpolation-filters:sRGB;"
       id="filter4293">
      <feGaussianBlur
         result="result0"
         in="SourceAlpha"
         stdDeviation="4"
         id="feGaussianBlur4287" />
      <feOffset
         dx="5"
         dy="5"
         result="result4"
         id="feOffset4289" />
      <feComposite
         in="SourceGraphic"
         in2="result4"
         operator="xor"
         result="result3"
         id="feComposite4291" />
    </filter>
  </defs>
  <sodipodi:namedview
     pagecolor="#ffffff"
     bordercolor="#666666"
     borderopacity="1"
     objecttolerance="10"
     gridtolerance="10"
     guidetolerance="10"
     inkscape:pageopacity="0"
     inkscape:pageshadow="2"
     inkscape:window-width="1920"
     inkscape:window-height="1017"
     id="namedview578"
     showgrid="false"
     inkscape:zoom="0.19555922"
     inkscape:cx="3473.4992"
     inkscape:cy="1172.3856"
     inkscape:window-x="1912"
     inkscape:window-y="-8"
     inkscape:window-maximized="1"
     inkscape:current-layer="svg576" />
  <g
     transform="translate(0.000000,1280.000000) scale(0.100000,-0.100000)"
     fill="#000000"
     stroke="none"
     id="g574"
     style="fill:#1a1a1a">
    <path
       d="m 3420,11943 c -394,-10 -1051.5593,-26.322 -1713.5593,-108.322 C 1416.4407,11798.678 599,11642 594,11637 c -16,-16 -122,-714 -158,-1037 -46,-416 -51,-501 -51,-920 1,-463 10,-554 65,-667 58,-118 178,-214 335,-270 73,-25 92,-28 220,-28 111,0 151,4 195,19 101,34 173,79 260,164 144,141 298,199 552,209 596,24 1059.678,-325.4407 1174.678,-958.4407 C 3208.678,8027.5593 3176,7695 3161,7533 c -22,-232 -84,-481 -158,-627 -109,-216 -279,-381 -470,-454 -106,-41 -187,-55 -323,-54 -138,1 -267,30 -381,87 -109,55 -164,100 -230,192 -91,125 -196,192 -337,213 -174,27 -442.35593,-31.4407 -577.35593,-177.4407 C 446.64407,6456.5593 457,6050 430,4863 c -13,-551 3,-1551 35,-2268 3,-66 12,-273 20,-460 18,-399 20,-422 43,-429 92,-27 635,-117 937,-155 379,-48 619,-64 925,-64 296,0 487,17 579,52 126,48 228,160 288,320 101,268 54,558 -120,747 -80,87 -113,138 -148,235 -46,127 -63,236 -62,409 0,184 23,309 84,465 97,248 238.8814,459.1186 476.8814,577.1186 209,103 507.0339,152.5594 807.0339,152.5594 C 4995.9153,4444.678 5342,4157 5487,3683 c 24,-81 54.1186,-129.1186 54.1186,-290.1186 C 5542.1186,3188.8814 5499,3138 5426,2985 c -52,-109 -93,-162 -176,-226 -180,-139 -248,-359 -184,-589 68,-240 293,-434 592,-511 423,-108 1255.4407,33.9153 2454.4407,230.9153 C 8615.4407,1972.9153 9461,2040 9482,2059 c 4,3 -1,63 -12,133 -59,378 -227.7966,1210.5593 -266.7966,1631.5593 C 9133.2034,4566.5593 9192,5107 9245,5358 c 79,378 342,512 748,382 203,-65 403.678,-153.4407 507.678,-286.4407 370,-469 878.322,-619.5593 1384.322,-368.5593 540,268 798.203,910 797.203,1708 -1,917 -240.203,1571 -796.203,1842 -194,94 -377,135 -611,135 -265,0 -507,-62 -709,-182 -93,-55 -207,-165 -239,-231 -14,-28 -49,-101 -77,-161 -43,-90 -64,-121 -123,-181 -170,-171 -407,-219 -629,-126 -127,54 -227,151 -269,261 -50,133 -173.9153,578.3559 -173.9153,1091.3559 0,670 145.9153,1398.6441 250.9153,2377.6441 13,129 23,235 22,237 -4,4 -836,40 -1268,56 -184,6 -618,12 -965,12 -941,1 -1046,-13 -1196,-163 -159,-159 -180,-397 -53,-600 20,-31 98,-117 174,-191 153,-150 203,-223 250,-363 42,-124 54,-217 47,-380 -4,-105 -12,-167 -30,-237 C 6166,9525 5817,9154 5355,9001 5041,8897 4518.4068,8879.4407 4234.4068,8976.4407 3839.4068,9112.4407 3698,9457 3616,9889 c -20,104 -21,305 -2,403 41,209 112,321 274,437 152,108 234,205 312,365 109,222 121,466 33,629 -58,105 -173,183 -308,208 -50,9 -346,16 -505,12 z"
       id="path572"
       inkscape:connector-curvature="0"
       sodipodi:nodetypes="ccsccccscccccccccccccccccscccccccscccccccccccsccccsccccccsccccscccccccccccccc"
       style="fill:#1a1a1a" />
  </g>
</svg>
