<?xml version="1.0" encoding="iso-8859-1"?>
<!-- Generator: Adobe Illustrator 19.0.0, SVG Export Plug-In . SVG Version: 6.00 Build 0)  -->
<svg version="1.1" id="Layer_1" xmlns="http://www.w3.org/2000/svg" xmlns:xlink="http://www.w3.org/1999/xlink" x="0px" y="0px"
	 viewBox="0 0 512 512" style="enable-background:new 0 0 512 512;" xml:space="preserve">
<g>
	<path style="fill:#B3404A;" d="M252.156,430.382c-7.51,0-13.598-6.088-13.598-13.598v-89.747c0-7.51,6.088-13.598,13.598-13.598
		c7.51,0,13.598,6.088,13.598,13.598v89.747C265.754,424.294,259.666,430.382,252.156,430.382z"/>
	<path style="fill:#B3404A;" d="M252.156,286.238c-7.51,0-13.598-6.088-13.598-13.598V97.227c0-7.51,6.088-13.598,13.598-13.598
		c7.51,0,13.598,6.088,13.598,13.598v175.412C265.754,280.15,259.666,286.238,252.156,286.238z"/>
</g>
<circle style="fill:#F4B2B0;" cx="252.15" cy="435.4" r="63"/>
<path style="fill:#B3404A;" d="M252.156,512c-42.24,0-76.603-34.364-76.603-76.603c0-42.24,34.364-76.603,76.603-76.603
	c42.239,0,76.603,34.364,76.603,76.603C328.758,477.636,294.395,512,252.156,512z M252.156,385.991
	c-27.243,0-49.406,22.164-49.406,49.406s22.164,49.406,49.406,49.406s49.406-22.164,49.406-49.406S279.398,385.991,252.156,385.991z
	"/>
<polygon style="fill:#F4B2B0;" points="311.037,115.585 252.154,13.598 193.273,115.585 "/>
<g>
	<path style="fill:#B3404A;" d="M311.037,129.183H193.273c-4.859,0-9.347-2.592-11.776-6.799c-2.43-4.207-2.43-9.391,0-13.598
		L240.378,6.799C242.807,2.592,247.296,0,252.154,0c4.859,0,9.347,2.592,11.776,6.799l58.881,101.986
		c2.43,4.207,2.43,9.391,0,13.598C320.385,126.591,315.896,129.183,311.037,129.183z M216.826,101.986h70.659l-35.329-61.192
		L216.826,101.986z"/>
	<path style="fill:#B3404A;" d="M252.156,286.238h-76.15c-40.49,0-73.43-32.94-73.43-73.43v-50.311
		c0-7.51,6.088-13.598,13.598-13.598s13.598,6.088,13.598,13.598v50.311c0,25.494,20.74,46.234,46.234,46.234h76.15
		c7.51,0,13.598,6.088,13.598,13.598C265.754,280.15,259.666,286.238,252.156,286.238z"/>
	<path style="fill:#B3404A;" d="M150.169,175.417H82.179c-7.51,0-13.598-6.088-13.598-13.598v-29.916
		c0-7.51,6.088-13.598,13.598-13.598c7.51,0,13.598,6.088,13.598,13.598v16.318h40.795v-40.795h-18.356
		c-7.51,0-13.598-6.088-13.598-13.598c0-7.51,6.088-13.598,13.598-13.598h31.954c7.51,0,13.598,6.088,13.598,13.598v67.991
		C163.768,169.327,157.68,175.417,150.169,175.417z"/>
	<path style="fill:#B3404A;" d="M328.288,340.636h-76.15c-7.51,0-13.598-6.088-13.598-13.598c0-7.51,6.088-13.598,13.598-13.598
		h76.15c25.494,0,46.234-20.74,46.234-46.234v-40.79c0-7.51,6.088-13.598,13.598-13.598s13.598,6.088,13.598,13.598v40.79
		C401.718,307.696,368.778,340.636,328.288,340.636z"/>
	<path style="fill:#B3404A;" d="M388.12,237.519c-30.493,0-55.3-24.807-55.3-55.3s24.807-55.3,55.3-55.3
		c30.493,0,55.3,24.807,55.3,55.3S418.612,237.519,388.12,237.519z M388.12,154.118c-15.496,0-28.103,12.607-28.103,28.103
		s12.607,28.103,28.103,28.103c15.496,0,28.103-12.607,28.103-28.103C416.223,166.725,403.616,154.118,388.12,154.118z"/>
</g>
<g>
</g>
<g>
</g>
<g>
</g>
<g>
</g>
<g>
</g>
<g>
</g>
<g>
</g>
<g>
</g>
<g>
</g>
<g>
</g>
<g>
</g>
<g>
</g>
<g>
</g>
<g>
</g>
<g>
</g>
</svg>
